<svg xmlns="http://www.w3.org/2000/svg" xmlns:xlink="http://www.w3.org/1999/xlink" width="500" zoomAndPan="magnify" viewBox="0 0 375 374.999991" height="500" preserveAspectRatio="xMidYMid meet" version="1.0"><defs><clipPath id="374348d49d"><path d="M 8.519531 8.519531 L 366.480469 8.519531 L 366.480469 366.480469 L 8.519531 366.480469 Z M 8.519531 8.519531 " clip-rule="nonzero"/></clipPath><clipPath id="4d98b769de"><path d="M 187.5 8.519531 C 88.652344 8.519531 8.519531 88.652344 8.519531 187.5 C 8.519531 286.347656 88.652344 366.480469 187.5 366.480469 C 286.347656 366.480469 366.480469 286.347656 366.480469 187.5 C 366.480469 88.652344 286.347656 8.519531 187.5 8.519531 Z M 187.5 8.519531 " clip-rule="nonzero"/></clipPath><clipPath id="8b7e056496"><path d="M 0.519531 0.519531 L 358.480469 0.519531 L 358.480469 358.480469 L 0.519531 358.480469 Z M 0.519531 0.519531 " clip-rule="nonzero"/></clipPath><clipPath id="ec6d863ad9"><path d="M 179.5 0.519531 C 80.652344 0.519531 0.519531 80.652344 0.519531 179.5 C 0.519531 278.347656 80.652344 358.480469 179.5 358.480469 C 278.347656 358.480469 358.480469 278.347656 358.480469 179.5 C 358.480469 80.652344 278.347656 0.519531 179.5 0.519531 Z M 179.5 0.519531 " clip-rule="nonzero"/></clipPath><clipPath id="fad2c20312"><rect x="0" width="359" y="0" height="359"/></clipPath><clipPath id="3ca02f89be"><path d="M 7 7 L 368 7 L 368 368 L 7 368 Z M 7 7 " clip-rule="nonzero"/></clipPath><clipPath id="05248c5f13"><path d="M -67.253906 187.496094 L 187.304688 -67.0625 L 441.863281 187.496094 L 187.304688 442.054688 Z M -67.253906 187.496094 " clip-rule="nonzero"/></clipPath><clipPath id="8a1c998f24"><path d="M -67.253906 187.496094 L 187.304688 -67.0625 L 441.863281 187.496094 L 187.304688 442.054688 Z M -67.253906 187.496094 " clip-rule="nonzero"/></clipPath></defs><g clip-path="url(#374348d49d)"><g clip-path="url(#4d98b769de)"><g transform="matrix(1, 0, 0, 1, 8, 8)"><g clip-path="url(#fad2c20312)"><g clip-path="url(#8b7e056496)"><g clip-path="url(#ec6d863ad9)"><path fill="#ffffff" d="M 0.519531 0.519531 L 358.480469 0.519531 L 358.480469 358.480469 L 0.519531 358.480469 Z M 0.519531 0.519531 " fill-opacity="1" fill-rule="nonzero"/></g></g></g></g></g></g><g clip-path="url(#3ca02f89be)"><g clip-path="url(#05248c5f13)"><g clip-path="url(#8a1c998f24)"><path fill="#1b03b4" d="M 60.121094 60.121094 C -1.503906 121.746094 -9.140625 216.902344 37.199219 286.84375 L 161.015625 163.023438 L 75.328125 163.023438 L 75.324219 90.964844 L 282.78125 90.964844 L 282.777344 300.914062 L 210.722656 300.914062 L 210.722656 215.21875 L 88.210938 337.730469 C 78.222656 331.148438 68.757812 323.476562 59.957031 314.707031 C 60.015625 314.761719 60.066406 314.8125 60.121094 314.871094 C 130.46875 385.214844 244.523438 385.214844 314.871094 314.871094 C 385.214844 244.523438 385.214844 130.46875 314.871094 60.121094 C 244.523438 -10.226562 130.46875 -10.226562 60.121094 60.121094 Z M 60.121094 60.121094 " fill-opacity="1" fill-rule="nonzero"/></g></g></g></svg>